# MagicaVoxel @ Ephtracy

# group
o 

# material
mtllib rl_overload_rocket.mtl
usemtl palette

# normals
vn -1 0 0
vn 1 0 0
vn 0 0 1
vn 0 0 -1
vn 0 -1 0
vn 0 1 0

# texcoords
vt 0.841797 0.5
vt 0.982422 0.5
vt 0.994141 0.5

# verts
v -0.3 -0.2 0.1
v -0.3 -0.2 -0.1
v -0.3 -0.1 0.2
v -0.3 -0.1 0.1
v -0.3 -0.1 0
v -0.3 0.1 0.2
v -0.3 0.1 0.1
v -0.3 0.1 0
v -0.3 0.2 0.1
v -0.3 0.2 -0.1
v -0.2 -0.3 0.1
v -0.2 -0.3 -0.1
v -0.2 -0.2 0.2
v -0.2 -0.2 0.1
v -0.2 -0.2 -0.1
v -0.2 -0.2 -0.2
v -0.2 -0.1 0.3
v -0.2 -0.1 0.2
v -0.2 -0.1 0.1
v -0.2 -0.1 -0.1
v -0.2 -0.1 -0.2
v -0.2 -0.1 -0.3
v -0.2 0.1 0.3
v -0.2 0.1 0.2
v -0.2 0.1 0.1
v -0.2 0.1 -0.1
v -0.2 0.1 -0.2
v -0.2 0.1 -0.3
v -0.2 0.2 0.2
v -0.2 0.2 0.1
v -0.2 0.2 -0.1
v -0.2 0.2 -0.2
v -0.2 0.3 0.1
v -0.2 0.3 -0.1
v -0.1 -0.3 0.2
v -0.1 -0.3 0.1
v -0.1 -0.2 0.3
v -0.1 -0.2 0.2
v -0.1 -0.2 0.1
v -0.1 -0.2 -0.2
v -0.1 -0.2 -0.3
v -0.1 -0.1 0.3
v -0.1 -0.1 0.2
v -0.1 -0.1 -0.2
v -0.1 -0.1 -0.3
v -0.1 0.1 0.3
v -0.1 0.1 0.2
v -0.1 0.1 -0.2
v -0.1 0.1 -0.3
v -0.1 0.2 0.3
v -0.1 0.2 0.2
v -0.1 0.2 0.1
v -0.1 0.2 -0.2
v -0.1 0.2 -0.3
v -0.1 0.3 0.2
v -0.1 0.3 0.1
v 0.1 -0.1 -0.1
v 0.1 -0.1 -0.3
v 0.1 0.1 -0.1
v 0.1 0.1 -0.3
v -0.1 -0.1 -0.1
v -0.1 -0.1 -0.3
v -0.1 0.1 -0.1
v -0.1 0.1 -0.3
v 0.1 -0.3 0.2
v 0.1 -0.3 0.1
v 0.1 -0.2 0.3
v 0.1 -0.2 0.2
v 0.1 -0.2 0.1
v 0.1 -0.2 -0.2
v 0.1 -0.2 -0.3
v 0.1 -0.1 0.3
v 0.1 -0.1 0.2
v 0.1 -0.1 -0.2
v 0.1 -0.1 -0.3
v 0.1 0.1 0.3
v 0.1 0.1 0.2
v 0.1 0.1 -0.2
v 0.1 0.1 -0.3
v 0.1 0.2 0.3
v 0.1 0.2 0.2
v 0.1 0.2 0.1
v 0.1 0.2 -0.2
v 0.1 0.2 -0.3
v 0.1 0.3 0.2
v 0.1 0.3 0.1
v 0.2 -0.3 0.1
v 0.2 -0.3 -0.1
v 0.2 -0.2 0.2
v 0.2 -0.2 0.1
v 0.2 -0.2 -0.1
v 0.2 -0.2 -0.2
v 0.2 -0.1 0.3
v 0.2 -0.1 0.2
v 0.2 -0.1 0.1
v 0.2 -0.1 -0.1
v 0.2 -0.1 -0.2
v 0.2 -0.1 -0.3
v 0.2 0.1 0.3
v 0.2 0.1 0.2
v 0.2 0.1 0.1
v 0.2 0.1 -0.1
v 0.2 0.1 -0.2
v 0.2 0.1 -0.3
v 0.2 0.2 0.2
v 0.2 0.2 0.1
v 0.2 0.2 -0.1
v 0.2 0.2 -0.2
v 0.2 0.3 0.1
v 0.2 0.3 -0.1
v 0.3 -0.2 0.1
v 0.3 -0.2 -0.1
v 0.3 -0.1 0.2
v 0.3 -0.1 0.1
v 0.3 -0.1 0
v 0.3 0.1 0.2
v 0.3 0.1 0.1
v 0.3 0.1 0
v 0.3 0.2 0.1
v 0.3 0.2 -0.1
v -0.2 -0.1 0.3
v -0.2 0.1 0.3
v -0.1 -0.2 0.3
v -0.1 -0.1 0.3
v -0.1 0.1 0.3
v -0.1 0.2 0.3
v 0.1 -0.2 0.3
v 0.1 -0.1 0.3
v 0.1 0.1 0.3
v 0.1 0.2 0.3
v 0.2 -0.1 0.3
v 0.2 0.1 0.3
v -0.3 -0.1 0.2
v -0.3 0.1 0.2
v -0.2 -0.2 0.2
v -0.2 -0.1 0.2
v -0.2 0.1 0.2
v -0.2 0.2 0.2
v -0.1 -0.3 0.2
v -0.1 -0.2 0.2
v -0.1 -0.1 0.2
v -0.1 0.1 0.2
v -0.1 0.2 0.2
v -0.1 0.3 0.2
v 0.1 -0.3 0.2
v 0.1 -0.2 0.2
v 0.1 -0.1 0.2
v 0.1 0.1 0.2
v 0.1 0.2 0.2
v 0.1 0.3 0.2
v 0.2 -0.2 0.2
v 0.2 -0.1 0.2
v 0.2 0.1 0.2
v 0.2 0.2 0.2
v 0.3 -0.1 0.2
v 0.3 0.1 0.2
v -0.3 -0.2 0.1
v -0.3 -0.1 0.1
v -0.3 0.1 0.1
v -0.3 0.2 0.1
v -0.2 -0.3 0.1
v -0.2 -0.2 0.1
v -0.2 -0.1 0.1
v -0.2 0.1 0.1
v -0.2 0.2 0.1
v -0.2 0.3 0.1
v -0.1 -0.3 0.1
v -0.1 -0.2 0.1
v -0.1 0.2 0.1
v -0.1 0.3 0.1
v 0.1 -0.3 0.1
v 0.1 -0.2 0.1
v 0.1 0.2 0.1
v 0.1 0.3 0.1
v 0.2 -0.3 0.1
v 0.2 -0.2 0.1
v 0.2 -0.1 0.1
v 0.2 0.1 0.1
v 0.2 0.2 0.1
v 0.2 0.3 0.1
v 0.3 -0.2 0.1
v 0.3 -0.1 0.1
v 0.3 0.1 0.1
v 0.3 0.2 0.1
v -0.3 -0.2 -0.1
v -0.3 0.2 -0.1
v -0.2 -0.3 -0.1
v -0.2 -0.2 -0.1
v -0.2 -0.1 -0.1
v -0.2 0.1 -0.1
v -0.2 0.2 -0.1
v -0.2 0.3 -0.1
v -0.1 -0.2 -0.1
v -0.1 -0.1 -0.1
v -0.1 0.1 -0.1
v -0.1 0.2 -0.1
v 0.1 -0.2 -0.1
v 0.1 -0.1 -0.1
v 0.1 0.1 -0.1
v 0.1 0.2 -0.1
v 0.2 -0.3 -0.1
v 0.2 -0.2 -0.1
v 0.2 -0.1 -0.1
v 0.2 0.1 -0.1
v 0.2 0.2 -0.1
v 0.2 0.3 -0.1
v 0.3 -0.2 -0.1
v 0.3 0.2 -0.1
v -0.2 -0.2 -0.2
v -0.2 -0.1 -0.2
v -0.2 0.1 -0.2
v -0.2 0.2 -0.2
v -0.1 -0.2 -0.2
v -0.1 -0.1 -0.2
v -0.1 0.1 -0.2
v -0.1 0.2 -0.2
v 0.1 -0.2 -0.2
v 0.1 -0.1 -0.2
v 0.1 0.1 -0.2
v 0.1 0.2 -0.2
v 0.2 -0.2 -0.2
v 0.2 -0.1 -0.2
v 0.2 0.1 -0.2
v 0.2 0.2 -0.2
v -0.2 -0.1 -0.3
v -0.2 0.1 -0.3
v -0.1 -0.2 -0.3
v -0.1 -0.1 -0.3
v -0.1 0.1 -0.3
v -0.1 0.2 -0.3
v 0.1 -0.2 -0.3
v 0.1 -0.1 -0.3
v 0.1 0.1 -0.3
v 0.1 0.2 -0.3
v 0.2 -0.1 -0.3
v 0.2 0.1 -0.3
v -0.1 -0.3 0.2
v 0.1 -0.3 0.2
v -0.2 -0.3 0.1
v -0.1 -0.3 0.1
v 0.1 -0.3 0.1
v 0.2 -0.3 0.1
v -0.1 -0.3 0
v 0.1 -0.3 0
v -0.2 -0.3 -0.1
v 0.2 -0.3 -0.1
v -0.1 -0.2 0.3
v 0.1 -0.2 0.3
v -0.2 -0.2 0.2
v -0.1 -0.2 0.2
v 0.1 -0.2 0.2
v 0.2 -0.2 0.2
v -0.3 -0.2 0.1
v -0.2 -0.2 0.1
v -0.1 -0.2 0.1
v 0.1 -0.2 0.1
v 0.2 -0.2 0.1
v 0.3 -0.2 0.1
v -0.3 -0.2 -0.1
v -0.2 -0.2 -0.1
v -0.1 -0.2 -0.1
v 0.1 -0.2 -0.1
v 0.2 -0.2 -0.1
v 0.3 -0.2 -0.1
v -0.2 -0.2 -0.2
v -0.1 -0.2 -0.2
v 0.1 -0.2 -0.2
v 0.2 -0.2 -0.2
v -0.1 -0.2 -0.3
v 0.1 -0.2 -0.3
v -0.2 -0.1 0.3
v -0.1 -0.1 0.3
v 0.1 -0.1 0.3
v 0.2 -0.1 0.3
v -0.3 -0.1 0.2
v -0.2 -0.1 0.2
v -0.1 -0.1 0.2
v 0.1 -0.1 0.2
v 0.2 -0.1 0.2
v 0.3 -0.1 0.2
v -0.3 -0.1 0.1
v -0.2 -0.1 0.1
v 0.2 -0.1 0.1
v 0.3 -0.1 0.1
v -0.2 -0.1 -0.2
v -0.1 -0.1 -0.2
v 0.1 -0.1 -0.2
v 0.2 -0.1 -0.2
v -0.2 -0.1 -0.3
v -0.1 -0.1 -0.3
v 0.1 -0.1 -0.3
v 0.2 -0.1 -0.3
v -0.1 0.1 -0.1
v 0.1 0.1 -0.1
v -0.1 0.1 -0.3
v 0.1 0.1 -0.3
v -0.1 -0.1 -0.1
v 0.1 -0.1 -0.1
v -0.1 -0.1 -0.3
v 0.1 -0.1 -0.3
v -0.2 0.1 0.3
v -0.1 0.1 0.3
v 0.1 0.1 0.3
v 0.2 0.1 0.3
v -0.3 0.1 0.2
v -0.2 0.1 0.2
v -0.1 0.1 0.2
v 0.1 0.1 0.2
v 0.2 0.1 0.2
v 0.3 0.1 0.2
v -0.3 0.1 0.1
v -0.2 0.1 0.1
v 0.2 0.1 0.1
v 0.3 0.1 0.1
v -0.2 0.1 -0.2
v -0.1 0.1 -0.2
v 0.1 0.1 -0.2
v 0.2 0.1 -0.2
v -0.2 0.1 -0.3
v -0.1 0.1 -0.3
v 0.1 0.1 -0.3
v 0.2 0.1 -0.3
v -0.1 0.2 0.3
v 0.1 0.2 0.3
v -0.2 0.2 0.2
v -0.1 0.2 0.2
v 0.1 0.2 0.2
v 0.2 0.2 0.2
v -0.3 0.2 0.1
v -0.2 0.2 0.1
v -0.1 0.2 0.1
v 0.1 0.2 0.1
v 0.2 0.2 0.1
v 0.3 0.2 0.1
v -0.3 0.2 -0.1
v -0.2 0.2 -0.1
v -0.1 0.2 -0.1
v 0.1 0.2 -0.1
v 0.2 0.2 -0.1
v 0.3 0.2 -0.1
v -0.2 0.2 -0.2
v -0.1 0.2 -0.2
v 0.1 0.2 -0.2
v 0.2 0.2 -0.2
v -0.1 0.2 -0.3
v 0.1 0.2 -0.3
v -0.1 0.3 0.2
v 0.1 0.3 0.2
v -0.2 0.3 0.1
v -0.1 0.3 0.1
v 0.1 0.3 0.1
v 0.2 0.3 0.1
v -0.1 0.3 0
v 0.1 0.3 0
v -0.2 0.3 -0.1
v 0.2 0.3 -0.1

# faces
f 4/3/1 2/3/1 1/3/1
f 5/3/1 2/3/1 4/3/1
f 6/1/1 4/1/1 3/1/1
f 6/1/1 5/1/1 4/1/1
f 7/1/1 5/1/1 6/1/1
f 8/3/1 2/3/1 5/3/1
f 8/1/1 5/1/1 7/1/1
f 9/3/1 8/3/1 7/3/1
f 10/3/1 2/3/1 8/3/1
f 10/3/1 8/3/1 9/3/1
f 14/3/1 12/3/1 11/3/1
f 15/3/1 12/3/1 14/3/1
f 18/3/1 14/3/1 13/3/1
f 19/3/1 14/3/1 18/3/1
f 20/3/1 16/3/1 15/3/1
f 21/3/1 16/3/1 20/3/1
f 23/1/1 18/1/1 17/1/1
f 24/1/1 18/1/1 23/1/1
f 26/2/1 22/2/1 21/2/1
f 26/2/1 21/2/1 20/2/1
f 27/2/1 22/2/1 26/2/1
f 28/2/1 22/2/1 27/2/1
f 29/3/1 25/3/1 24/3/1
f 30/3/1 25/3/1 29/3/1
f 31/3/1 27/3/1 26/3/1
f 32/3/1 27/3/1 31/3/1
f 33/3/1 31/3/1 30/3/1
f 34/3/1 31/3/1 33/3/1
f 38/1/1 36/1/1 35/1/1
f 39/1/1 36/1/1 38/1/1
f 42/1/1 38/1/1 37/1/1
f 43/1/1 38/1/1 42/1/1
f 44/2/1 41/2/1 40/2/1
f 45/2/1 41/2/1 44/2/1
f 50/1/1 47/1/1 46/1/1
f 51/1/1 47/1/1 50/1/1
f 53/2/1 49/2/1 48/2/1
f 54/2/1 49/2/1 53/2/1
f 55/1/1 52/1/1 51/1/1
f 56/1/1 52/1/1 55/1/1
f 59/2/1 58/2/1 57/2/1
f 60/2/1 58/2/1 59/2/1
f 61/2/2 62/2/2 63/2/2
f 63/2/2 62/2/2 64/2/2
f 65/1/2 66/1/2 68/1/2
f 68/1/2 66/1/2 69/1/2
f 67/1/2 68/1/2 72/1/2
f 72/1/2 68/1/2 73/1/2
f 70/2/2 71/2/2 74/2/2
f 74/2/2 71/2/2 75/2/2
f 76/1/2 77/1/2 80/1/2
f 80/1/2 77/1/2 81/1/2
f 78/2/2 79/2/2 83/2/2
f 83/2/2 79/2/2 84/2/2
f 81/1/2 82/1/2 85/1/2
f 85/1/2 82/1/2 86/1/2
f 87/3/2 88/3/2 90/3/2
f 90/3/2 88/3/2 91/3/2
f 89/3/2 90/3/2 94/3/2
f 94/3/2 90/3/2 95/3/2
f 91/3/2 92/3/2 96/3/2
f 96/3/2 92/3/2 97/3/2
f 93/1/2 94/1/2 99/1/2
f 99/1/2 94/1/2 100/1/2
f 97/2/2 98/2/2 102/2/2
f 96/2/2 97/2/2 102/2/2
f 102/2/2 98/2/2 103/2/2
f 103/2/2 98/2/2 104/2/2
f 100/3/2 101/3/2 105/3/2
f 105/3/2 101/3/2 106/3/2
f 102/3/2 103/3/2 107/3/2
f 107/3/2 103/3/2 108/3/2
f 106/3/2 107/3/2 109/3/2
f 109/3/2 107/3/2 110/3/2
f 111/3/2 112/3/2 114/3/2
f 114/3/2 112/3/2 115/3/2
f 113/1/2 114/1/2 116/1/2
f 114/1/2 115/1/2 116/1/2
f 116/1/2 115/1/2 117/1/2
f 115/3/2 112/3/2 118/3/2
f 117/1/2 115/1/2 118/1/2
f 117/3/2 118/3/2 119/3/2
f 118/3/2 112/3/2 120/3/2
f 119/3/2 118/3/2 120/3/2
f 124/1/3 122/1/3 121/1/3
f 125/1/3 122/1/3 124/1/3
f 127/1/3 124/1/3 123/1/3
f 127/1/3 126/1/3 125/1/3
f 127/1/3 125/1/3 124/1/3
f 128/1/3 126/1/3 127/1/3
f 129/1/3 126/1/3 128/1/3
f 130/1/3 126/1/3 129/1/3
f 131/1/3 129/1/3 128/1/3
f 132/1/3 129/1/3 131/1/3
f 136/1/3 134/1/3 133/1/3
f 137/1/3 134/1/3 136/1/3
f 140/3/3 136/3/3 135/3/3
f 141/3/3 136/3/3 140/3/3
f 142/3/3 138/3/3 137/3/3
f 143/3/3 138/3/3 142/3/3
f 145/1/3 140/1/3 139/1/3
f 146/1/3 140/1/3 145/1/3
f 149/1/3 144/1/3 143/1/3
f 150/1/3 144/1/3 149/1/3
f 151/3/3 147/3/3 146/3/3
f 152/3/3 147/3/3 151/3/3
f 153/3/3 149/3/3 148/3/3
f 154/3/3 149/3/3 153/3/3
f 155/1/3 153/1/3 152/1/3
f 156/1/3 153/1/3 155/1/3
f 162/3/3 158/3/3 157/3/3
f 163/3/3 158/3/3 162/3/3
f 164/3/3 160/3/3 159/3/3
f 165/3/3 160/3/3 164/3/3
f 167/3/3 162/3/3 161/3/3
f 168/3/3 162/3/3 167/3/3
f 169/3/3 166/3/3 165/3/3
f 170/3/3 166/3/3 169/3/3
f 175/3/3 172/3/3 171/3/3
f 176/3/3 172/3/3 175/3/3
f 179/3/3 174/3/3 173/3/3
f 180/3/3 174/3/3 179/3/3
f 181/3/3 177/3/3 176/3/3
f 182/3/3 177/3/3 181/3/3
f 183/3/3 179/3/3 178/3/3
f 184/3/3 179/3/3 183/3/3
f 185/3/4 186/3/4 188/3/4
f 188/3/4 186/3/4 189/3/4
f 189/3/4 186/3/4 190/3/4
f 190/3/4 186/3/4 191/3/4
f 187/3/4 188/3/4 193/3/4
f 191/3/4 192/3/4 196/3/4
f 187/3/4 193/3/4 197/3/4
f 194/1/4 195/1/4 198/1/4
f 198/1/4 195/1/4 199/1/4
f 196/3/4 192/3/4 200/3/4
f 187/3/4 197/3/4 201/3/4
f 201/3/4 197/3/4 202/3/4
f 200/3/4 192/3/4 205/3/4
f 205/3/4 192/3/4 206/3/4
f 203/3/4 204/3/4 207/3/4
f 204/3/4 205/3/4 207/3/4
f 202/3/4 203/3/4 207/3/4
f 207/3/4 205/3/4 208/3/4
f 209/3/4 210/3/4 213/3/4
f 213/3/4 210/3/4 214/3/4
f 211/3/4 212/3/4 215/3/4
f 215/3/4 212/3/4 216/3/4
f 217/3/4 218/3/4 221/3/4
f 221/3/4 218/3/4 222/3/4
f 219/3/4 220/3/4 223/3/4
f 223/3/4 220/3/4 224/3/4
f 225/2/4 226/2/4 228/2/4
f 228/2/4 226/2/4 229/2/4
f 227/2/4 228/2/4 231/2/4
f 231/2/4 228/2/4 232/2/4
f 229/2/4 230/2/4 233/2/4
f 233/2/4 230/2/4 234/2/4
f 232/2/4 233/2/4 235/2/4
f 235/2/4 233/2/4 236/2/4
f 240/1/5 238/1/5 237/1/5
f 241/1/5 238/1/5 240/1/5
f 243/3/5 240/3/5 239/3/5
f 243/1/5 241/1/5 240/1/5
f 244/3/5 242/3/5 241/3/5
f 244/1/5 241/1/5 243/1/5
f 245/3/5 243/3/5 239/3/5
f 245/3/5 244/3/5 243/3/5
f 246/3/5 242/3/5 244/3/5
f 246/3/5 244/3/5 245/3/5
f 250/1/5 248/1/5 247/1/5
f 251/1/5 248/1/5 250/1/5
f 254/3/5 250/3/5 249/3/5
f 255/3/5 250/3/5 254/3/5
f 256/3/5 252/3/5 251/3/5
f 257/3/5 252/3/5 256/3/5
f 259/3/5 254/3/5 253/3/5
f 260/3/5 254/3/5 259/3/5
f 263/3/5 258/3/5 257/3/5
f 264/3/5 258/3/5 263/3/5
f 265/3/5 261/3/5 260/3/5
f 266/2/5 262/2/5 261/2/5
f 266/3/5 261/3/5 265/3/5
f 267/3/5 263/3/5 262/3/5
f 267/2/5 262/2/5 266/2/5
f 268/3/5 263/3/5 267/3/5
f 269/2/5 267/2/5 266/2/5
f 270/2/5 267/2/5 269/2/5
f 276/1/5 272/1/5 271/1/5
f 277/1/5 272/1/5 276/1/5
f 278/1/5 274/1/5 273/1/5
f 279/1/5 274/1/5 278/1/5
f 281/1/5 276/1/5 275/1/5
f 282/1/5 276/1/5 281/1/5
f 283/1/5 280/1/5 279/1/5
f 284/1/5 280/1/5 283/1/5
f 289/2/5 286/2/5 285/2/5
f 290/2/5 286/2/5 289/2/5
f 291/2/5 288/2/5 287/2/5
f 292/2/5 288/2/5 291/2/5
f 295/2/5 294/2/5 293/2/5
f 296/2/5 294/2/5 295/2/5
f 297/2/6 298/2/6 299/2/6
f 299/2/6 298/2/6 300/2/6
f 301/1/6 302/1/6 306/1/6
f 306/1/6 302/1/6 307/1/6
f 303/1/6 304/1/6 308/1/6
f 308/1/6 304/1/6 309/1/6
f 305/1/6 306/1/6 311/1/6
f 311/1/6 306/1/6 312/1/6
f 309/1/6 310/1/6 313/1/6
f 313/1/6 310/1/6 314/1/6
f 315/2/6 316/2/6 319/2/6
f 319/2/6 316/2/6 320/2/6
f 317/2/6 318/2/6 321/2/6
f 321/2/6 318/2/6 322/2/6
f 323/1/6 324/1/6 326/1/6
f 326/1/6 324/1/6 327/1/6
f 325/3/6 326/3/6 330/3/6
f 330/3/6 326/3/6 331/3/6
f 327/3/6 328/3/6 332/3/6
f 332/3/6 328/3/6 333/3/6
f 329/3/6 330/3/6 335/3/6
f 335/3/6 330/3/6 336/3/6
f 333/3/6 334/3/6 339/3/6
f 339/3/6 334/3/6 340/3/6
f 336/3/6 337/3/6 341/3/6
f 337/2/6 338/2/6 342/2/6
f 341/3/6 337/3/6 342/3/6
f 338/3/6 339/3/6 343/3/6
f 342/2/6 338/2/6 343/2/6
f 343/3/6 339/3/6 344/3/6
f 342/2/6 343/2/6 345/2/6
f 345/2/6 343/2/6 346/2/6
f 347/1/6 348/1/6 350/1/6
f 350/1/6 348/1/6 351/1/6
f 349/3/6 350/3/6 353/3/6
f 350/1/6 351/1/6 353/1/6
f 351/3/6 352/3/6 354/3/6
f 353/1/6 351/1/6 354/1/6
f 349/3/6 353/3/6 355/3/6
f 353/3/6 354/3/6 355/3/6
f 354/3/6 352/3/6 356/3/6
f 355/3/6 354/3/6 356/3/6
